Corey is a cool, aristocratic thief, released from prison on the same day that Vogel, a murderer, escapes from the custody of the patient Mattei, a cat-loving police superintendent. Corey robs Rico, his mob boss, then enlists Vogel and an ex-police sharpshooter, Jansen, in a jewel heist. While Corey is harried by the vengeful Rico, Mattei pressures Santi, a nightclub owner and pimp, to help him trap the thieves. Over all hangs the judgment of the police directeur, that every man is guilty. 

   General
      Complete name : Le.Cercle.Rouge.1970.720p.BluRay.x264-CiNEFiLE.mkv
      Format : Matroska
      File size : 6.55 GiB
      Duration : 2h 20mn
      Overall bit rate : 6 689 Kbps
   Video #1
      ID : 1
      Format : AVC
      Format/Info : Advanced Video Codec
      Format profile : High@L4.1
      Format settings, CABAC : Yes
      Format settings, ReFrames : 5 frames
      Muxing mode : Container profile=Unknown@4.1
      Codec ID : V_MPEG4/ISO/AVC
      Duration : 2h 20mn
      Bit rate : 5 046 Kbps
      Nominal bit rate : 5 184 Kbps
      Width : 1 280 pixels
      Height : 688 pixels
      Display aspect ratio : 1.860
      Frame rate : 23.976 fps
      Resolution : 24 bits
      Colorimetry : 4:2:0
      Scan type : Progressive
      Bits/(Pixel*Frame) : 0.239
      Stream size : 4.94 GiB (75%)
   Audio #2
      ID : 2
      Format : DTS
      Format/Info : Digital Theater Systems
      Codec ID : A_DTS
      Duration : 2h 20mn
      Bit rate mode : Constant
      Bit rate : 1 510 Kbps
      Channel(s) : 2 channels
      Channel positions : L R
      Sampling rate : 48.0 KHz
      Resolution : 24 bits
      Stream size : 1.48 GiB (23%)
      Title : DTS 2.0
      Language : French
   Text #3
      ID : 3
      Format : UTF-8
      Codec ID : S_TEXT/UTF8
      Codec ID/Info : UTF-8 Plain Text
      Language: English
 
http://www.imdb.com/title/tt0065531/

French audio, English subtitles (in mkv)